<mxfile host="app.diagrams.net" modified="2023-08-31T15:02:24.028Z" agent="Mozilla/5.0 (Windows NT 10.0; Win64; x64) AppleWebKit/537.36 (KHTML, like Gecko) Chrome/116.0.0.0 Safari/537.36" etag="oYaGGMBwY6Hrs2zXvmDi" version="21.7.1" type="device" pages="3">
  <diagram name="Page-1" id="eR6bOSaRwB21OMKv7-kL">
    <mxGraphModel dx="1050" dy="613" grid="1" gridSize="10" guides="1" tooltips="1" connect="1" arrows="1" fold="1" page="1" pageScale="1" pageWidth="850" pageHeight="1100" math="0" shadow="0">
      <root>
        <mxCell id="0" />
        <mxCell id="1" parent="0" />
        <mxCell id="i25aQ9WAsPLRu2iX-3yl-6" value="" style="edgeStyle=orthogonalEdgeStyle;rounded=0;orthogonalLoop=1;jettySize=auto;html=1;" edge="1" parent="1" source="i25aQ9WAsPLRu2iX-3yl-1" target="i25aQ9WAsPLRu2iX-3yl-3">
          <mxGeometry relative="1" as="geometry" />
        </mxCell>
        <mxCell id="i25aQ9WAsPLRu2iX-3yl-1" value="FullCalendar Display" style="rounded=0;whiteSpace=wrap;html=1;" vertex="1" parent="1">
          <mxGeometry x="40" y="40" width="130" height="50" as="geometry" />
        </mxCell>
        <mxCell id="i25aQ9WAsPLRu2iX-3yl-2" value="Request to Get Admin&#39;s Google Calendar Data using API" style="rounded=0;whiteSpace=wrap;html=1;" vertex="1" parent="1">
          <mxGeometry x="405" y="101" width="150" height="70" as="geometry" />
        </mxCell>
        <mxCell id="i25aQ9WAsPLRu2iX-3yl-3" value="Get All Rooms Calendars ID" style="rounded=0;whiteSpace=wrap;html=1;" vertex="1" parent="1">
          <mxGeometry x="230" y="35" width="120" height="60" as="geometry" />
        </mxCell>
        <mxCell id="i25aQ9WAsPLRu2iX-3yl-9" value="" style="edgeStyle=orthogonalEdgeStyle;rounded=0;orthogonalLoop=1;jettySize=auto;html=1;" edge="1" parent="1" source="i25aQ9WAsPLRu2iX-3yl-4" target="i25aQ9WAsPLRu2iX-3yl-5">
          <mxGeometry relative="1" as="geometry" />
        </mxCell>
        <mxCell id="i25aQ9WAsPLRu2iX-3yl-4" value="Get All Events Data" style="rounded=0;whiteSpace=wrap;html=1;" vertex="1" parent="1">
          <mxGeometry x="260" y="180" width="120" height="60" as="geometry" />
        </mxCell>
        <mxCell id="i25aQ9WAsPLRu2iX-3yl-5" value="Tie and display them all into one calendar display" style="rounded=0;whiteSpace=wrap;html=1;" vertex="1" parent="1">
          <mxGeometry x="40" y="180" width="160" height="60" as="geometry" />
        </mxCell>
        <mxCell id="i25aQ9WAsPLRu2iX-3yl-10" value="" style="endArrow=classic;html=1;rounded=0;entryX=0.5;entryY=0;entryDx=0;entryDy=0;exitX=1;exitY=0.5;exitDx=0;exitDy=0;" edge="1" parent="1" source="i25aQ9WAsPLRu2iX-3yl-3" target="i25aQ9WAsPLRu2iX-3yl-2">
          <mxGeometry width="50" height="50" relative="1" as="geometry">
            <mxPoint x="380" y="260" as="sourcePoint" />
            <mxPoint x="430" y="210" as="targetPoint" />
            <Array as="points">
              <mxPoint x="480" y="65" />
            </Array>
          </mxGeometry>
        </mxCell>
        <mxCell id="i25aQ9WAsPLRu2iX-3yl-11" value="" style="endArrow=classic;html=1;rounded=0;exitX=0.5;exitY=1;exitDx=0;exitDy=0;entryX=1;entryY=0.5;entryDx=0;entryDy=0;" edge="1" parent="1" source="i25aQ9WAsPLRu2iX-3yl-2" target="i25aQ9WAsPLRu2iX-3yl-4">
          <mxGeometry width="50" height="50" relative="1" as="geometry">
            <mxPoint x="380" y="260" as="sourcePoint" />
            <mxPoint x="430" y="210" as="targetPoint" />
            <Array as="points">
              <mxPoint x="480" y="210" />
            </Array>
          </mxGeometry>
        </mxCell>
      </root>
    </mxGraphModel>
  </diagram>
  <diagram id="b6aKVwrLaHr-PXEd9B9A" name="Page-2">
    <mxGraphModel dx="1050" dy="613" grid="1" gridSize="10" guides="1" tooltips="1" connect="1" arrows="1" fold="1" page="1" pageScale="1" pageWidth="850" pageHeight="1100" math="0" shadow="0">
      <root>
        <mxCell id="0" />
        <mxCell id="1" parent="0" />
        <mxCell id="bKzU3LzY_KbBH3HgkulK-1" value="User Creating An Event" style="rounded=0;whiteSpace=wrap;html=1;" vertex="1" parent="1">
          <mxGeometry x="240" y="120" width="90" height="60" as="geometry" />
        </mxCell>
        <mxCell id="bKzU3LzY_KbBH3HgkulK-2" value="&lt;font style=&quot;font-size: 15px;&quot;&gt;Admin&#39;s Google Calendar&lt;/font&gt;" style="rounded=0;whiteSpace=wrap;html=1;" vertex="1" parent="1">
          <mxGeometry x="120" y="230" width="120" height="60" as="geometry" />
        </mxCell>
        <mxCell id="bKzU3LzY_KbBH3HgkulK-3" value="&lt;font style=&quot;font-size: 15px;&quot;&gt;Local &lt;br&gt;Calendar DB&lt;/font&gt;" style="rounded=0;whiteSpace=wrap;html=1;" vertex="1" parent="1">
          <mxGeometry x="330" y="230" width="120" height="60" as="geometry" />
        </mxCell>
        <mxCell id="bKzU3LzY_KbBH3HgkulK-9" value="" style="edgeStyle=orthogonalEdgeStyle;rounded=0;orthogonalLoop=1;jettySize=auto;html=1;" edge="1" parent="1" source="bKzU3LzY_KbBH3HgkulK-4" target="bKzU3LzY_KbBH3HgkulK-8">
          <mxGeometry relative="1" as="geometry" />
        </mxCell>
        <mxCell id="bKzU3LzY_KbBH3HgkulK-4" value="Filtering necessary data to be displayed according to current user" style="rounded=0;whiteSpace=wrap;html=1;" vertex="1" parent="1">
          <mxGeometry x="500" y="225" width="150" height="70" as="geometry" />
        </mxCell>
        <mxCell id="bKzU3LzY_KbBH3HgkulK-7" value="" style="endArrow=classic;html=1;rounded=0;exitX=1;exitY=0.5;exitDx=0;exitDy=0;entryX=0;entryY=0.5;entryDx=0;entryDy=0;" edge="1" parent="1" source="bKzU3LzY_KbBH3HgkulK-3" target="bKzU3LzY_KbBH3HgkulK-4">
          <mxGeometry width="50" height="50" relative="1" as="geometry">
            <mxPoint x="430" y="440" as="sourcePoint" />
            <mxPoint x="480" y="390" as="targetPoint" />
          </mxGeometry>
        </mxCell>
        <mxCell id="bKzU3LzY_KbBH3HgkulK-11" value="" style="edgeStyle=orthogonalEdgeStyle;rounded=0;orthogonalLoop=1;jettySize=auto;html=1;entryX=1;entryY=0.5;entryDx=0;entryDy=0;exitX=0.5;exitY=1;exitDx=0;exitDy=0;" edge="1" parent="1" source="bKzU3LzY_KbBH3HgkulK-8" target="bKzU3LzY_KbBH3HgkulK-10">
          <mxGeometry relative="1" as="geometry" />
        </mxCell>
        <mxCell id="bKzU3LzY_KbBH3HgkulK-8" value="Displaying filtered events into FullCalendar" style="rounded=0;whiteSpace=wrap;html=1;" vertex="1" parent="1">
          <mxGeometry x="515" y="330" width="120" height="60" as="geometry" />
        </mxCell>
        <mxCell id="bKzU3LzY_KbBH3HgkulK-10" value="User updating or deleting events from Home calendar" style="rounded=0;whiteSpace=wrap;html=1;" vertex="1" parent="1">
          <mxGeometry x="225" y="410" width="120" height="60" as="geometry" />
        </mxCell>
        <mxCell id="bKzU3LzY_KbBH3HgkulK-14" value="" style="endArrow=classic;html=1;rounded=0;exitX=0.5;exitY=1;exitDx=0;exitDy=0;entryX=0.5;entryY=0;entryDx=0;entryDy=0;" edge="1" parent="1" source="bKzU3LzY_KbBH3HgkulK-1" target="bKzU3LzY_KbBH3HgkulK-2">
          <mxGeometry width="50" height="50" relative="1" as="geometry">
            <mxPoint x="380" y="470" as="sourcePoint" />
            <mxPoint x="430" y="420" as="targetPoint" />
            <Array as="points">
              <mxPoint x="285" y="200" />
              <mxPoint x="180" y="200" />
            </Array>
          </mxGeometry>
        </mxCell>
        <mxCell id="bKzU3LzY_KbBH3HgkulK-15" value="" style="endArrow=classic;html=1;rounded=0;exitX=0.5;exitY=1;exitDx=0;exitDy=0;entryX=0.5;entryY=0;entryDx=0;entryDy=0;" edge="1" parent="1" source="bKzU3LzY_KbBH3HgkulK-1" target="bKzU3LzY_KbBH3HgkulK-3">
          <mxGeometry width="50" height="50" relative="1" as="geometry">
            <mxPoint x="380" y="470" as="sourcePoint" />
            <mxPoint x="430" y="420" as="targetPoint" />
            <Array as="points">
              <mxPoint x="285" y="200" />
              <mxPoint x="390" y="200" />
            </Array>
          </mxGeometry>
        </mxCell>
        <mxCell id="bKzU3LzY_KbBH3HgkulK-16" value="" style="endArrow=classic;html=1;rounded=0;exitX=0.5;exitY=0;exitDx=0;exitDy=0;entryX=0.5;entryY=1;entryDx=0;entryDy=0;" edge="1" parent="1" source="bKzU3LzY_KbBH3HgkulK-10" target="bKzU3LzY_KbBH3HgkulK-3">
          <mxGeometry width="50" height="50" relative="1" as="geometry">
            <mxPoint x="380" y="470" as="sourcePoint" />
            <mxPoint x="430" y="420" as="targetPoint" />
            <Array as="points">
              <mxPoint x="285" y="370" />
              <mxPoint x="390" y="370" />
            </Array>
          </mxGeometry>
        </mxCell>
        <mxCell id="bKzU3LzY_KbBH3HgkulK-17" value="" style="endArrow=classic;html=1;rounded=0;exitX=0.5;exitY=0;exitDx=0;exitDy=0;entryX=0.5;entryY=1;entryDx=0;entryDy=0;" edge="1" parent="1" source="bKzU3LzY_KbBH3HgkulK-10" target="bKzU3LzY_KbBH3HgkulK-2">
          <mxGeometry width="50" height="50" relative="1" as="geometry">
            <mxPoint x="380" y="470" as="sourcePoint" />
            <mxPoint x="430" y="420" as="targetPoint" />
            <Array as="points">
              <mxPoint x="285" y="370" />
              <mxPoint x="180" y="370" />
            </Array>
          </mxGeometry>
        </mxCell>
      </root>
    </mxGraphModel>
  </diagram>
  <diagram id="_WCMPv2FUR3aWJBLZfWa" name="Page-3">
    <mxGraphModel dx="1050" dy="613" grid="1" gridSize="10" guides="1" tooltips="1" connect="1" arrows="1" fold="1" page="1" pageScale="1" pageWidth="850" pageHeight="1100" math="0" shadow="0">
      <root>
        <mxCell id="0" />
        <mxCell id="1" parent="0" />
        <mxCell id="NyPEl8LyvQRLSpTk1qdj-3" value="" style="edgeStyle=orthogonalEdgeStyle;rounded=0;orthogonalLoop=1;jettySize=auto;html=1;" edge="1" parent="1" source="NyPEl8LyvQRLSpTk1qdj-1" target="NyPEl8LyvQRLSpTk1qdj-2">
          <mxGeometry relative="1" as="geometry" />
        </mxCell>
        <mxCell id="NyPEl8LyvQRLSpTk1qdj-1" value="Google Calendar" style="rounded=0;whiteSpace=wrap;html=1;" vertex="1" parent="1">
          <mxGeometry x="260" y="150" width="120" height="60" as="geometry" />
        </mxCell>
        <mxCell id="NyPEl8LyvQRLSpTk1qdj-6" value="" style="edgeStyle=orthogonalEdgeStyle;rounded=0;orthogonalLoop=1;jettySize=auto;html=1;" edge="1" parent="1" source="NyPEl8LyvQRLSpTk1qdj-2" target="NyPEl8LyvQRLSpTk1qdj-5">
          <mxGeometry relative="1" as="geometry" />
        </mxCell>
        <mxCell id="NyPEl8LyvQRLSpTk1qdj-2" value="Web App Backend" style="rounded=0;whiteSpace=wrap;html=1;" vertex="1" parent="1">
          <mxGeometry x="460" y="150" width="120" height="60" as="geometry" />
        </mxCell>
        <mxCell id="NyPEl8LyvQRLSpTk1qdj-4" value="Events Data" style="text;html=1;strokeColor=none;fillColor=none;align=center;verticalAlign=middle;whiteSpace=wrap;rounded=0;" vertex="1" parent="1">
          <mxGeometry x="380" y="150" width="80" height="30" as="geometry" />
        </mxCell>
        <mxCell id="NyPEl8LyvQRLSpTk1qdj-8" value="" style="edgeStyle=orthogonalEdgeStyle;rounded=0;orthogonalLoop=1;jettySize=auto;html=1;" edge="1" parent="1" source="NyPEl8LyvQRLSpTk1qdj-5" target="NyPEl8LyvQRLSpTk1qdj-7">
          <mxGeometry relative="1" as="geometry" />
        </mxCell>
        <mxCell id="NyPEl8LyvQRLSpTk1qdj-5" value="Filter relevant events according to logged in user" style="rounded=0;whiteSpace=wrap;html=1;" vertex="1" parent="1">
          <mxGeometry x="455" y="250" width="130" height="60" as="geometry" />
        </mxCell>
        <mxCell id="NyPEl8LyvQRLSpTk1qdj-7" value="Displaying filtered events into FullCalendar" style="rounded=0;whiteSpace=wrap;html=1;" vertex="1" parent="1">
          <mxGeometry x="255" y="250" width="130" height="60" as="geometry" />
        </mxCell>
      </root>
    </mxGraphModel>
  </diagram>
</mxfile>
